<?xml version="1.0" encoding="iso-8859-1"?>
<!-- Generator: Adobe Illustrator 17.1.0, SVG Export Plug-In . SVG Version: 6.00 Build 0)  -->
<!DOCTYPE svg PUBLIC "-//W3C//DTD SVG 1.1//EN" "http://www.w3.org/Graphics/SVG/1.1/DTD/svg11.dtd">
<svg version="1.1" id="Capa_1" xmlns="http://www.w3.org/2000/svg" xmlns:xlink="http://www.w3.org/1999/xlink" x="0px" y="0px"
	 viewBox="0 0 192 192" style="enable-background:new 0 0 192 192; fill: rgb(255,69,0);" xml:space="preserve">
<path d="M165.563,69.663c-2.031-2.032-5.043-2.723-7.758-1.784c-2.714,0.94-4.653,3.348-4.992,6.201
	c-0.005,0.042-0.665,4.356-3.325,6.998c-0.527,0.523-1.115,0.992-1.733,1.41c-1.781-10.63-5.977-27.957-15.556-42.325
	c-15.201-22.802-44.925-29.846-46.183-30.134c-3.433-0.789-7.097,0.8-8.603,3.983c-1.494,3.157-0.754,6.806,1.976,8.968
	c0.519,0.531,3.678,4.061,3.401,10.982c-0.219,5.479-2.434,7.757-10.08,14.81c-2.312,2.133-4.933,4.55-7.853,7.47
	c-4.757,4.756-8.467,9.828-11.287,14.433c-0.14-0.228-0.282-0.454-0.427-0.678c-5.278-8.21-20.207-13.514-23.146-14.494
	c-3.343-1.115-7.356-0.115-9.16,2.916c-1.758,2.956-1.602,6.369,0.797,8.769c0.493,1.026,2.303,5.577,1.705,16.042
	c-0.297,5.195-4.604,11.472-9.163,18.118C7.531,111.03,0,122.006,0,135.796c0,24.329,23.715,43.876,24.724,44.697
	c1.337,1.086,3.007,1.679,4.729,1.679H64.67c2.75,0,5.28-1.505,6.592-3.923c1.312-2.417,1.195-5.358-0.303-7.665
	c-3.029-4.661-11.106-18.975-12.086-29.108c-0.26-2.68-0.187-5.492,0.085-8.249c5.352,6.953,11.53,10.203,12.421,10.648
	c2.356,1.179,5.158,1.033,7.38-0.38c2.223-1.415,3.541-3.892,3.471-6.525c-0.118-4.468,0.242-18.056,3.276-27.16
	c1.128-3.385,3.58-6.872,6.331-9.983c0.452,2.115,1.029,4.433,1.762,6.959c2.687,9.253,11.509,15,20.042,20.557
	c8.105,5.279,16.487,10.738,18.873,18.446c4.178,13.497-8.389,22.301-8.887,22.643c-2.75,1.833-3.976,5.25-3.018,8.414
	c0.958,3.163,3.873,5.327,7.178,5.327h37.504c1.603,0,3.164-0.514,4.454-1.466c0.909-0.67,22.255-16.818,22.255-50.855
	C192,96.484,166.643,70.743,165.563,69.663z"/>
<g>
</g>
<g>
</g>
<g>
</g>
<g>
</g>
<g>
</g>
<g>
</g>
<g>
</g>
<g>
</g>
<g>
</g>
<g>
</g>
<g>
</g>
<g>
</g>
<g>
</g>
<g>
</g>
<g>
</g>
</svg>
